<svg xmlns="http://www.w3.org/2000/svg" viewBox="0 0 1280 720" role="img" aria-label="1980s anime style radio cassette player">
  <defs>
    <linearGradient id="body" x1="0" y1="0" x2="1" y2="1">
      <stop offset="0" stop-color="#707866"/>
      <stop offset=".18" stop-color="#30372c"/>
      <stop offset=".52" stop-color="#10140f"/>
      <stop offset="1" stop-color="#4b5144"/>
    </linearGradient>
    <linearGradient id="edge" x1="0" y1="0" x2="0" y2="1">
      <stop offset="0" stop-color="#fff4cf" stop-opacity=".42"/>
      <stop offset=".38" stop-color="#63705c" stop-opacity=".16"/>
      <stop offset="1" stop-color="#000" stop-opacity=".56"/>
    </linearGradient>
    <linearGradient id="metal" x1="0" y1="0" x2="0" y2="1">
      <stop offset="0" stop-color="#efe5cb"/>
      <stop offset=".42" stop-color="#958870"/>
      <stop offset="1" stop-color="#3c382f"/>
    </linearGradient>
    <radialGradient id="speaker" cx=".5" cy=".45" r=".62">
      <stop offset="0" stop-color="#20261d"/>
      <stop offset=".42" stop-color="#080a08"/>
      <stop offset=".58" stop-color="#141913"/>
      <stop offset="1" stop-color="#030403"/>
    </radialGradient>
    <pattern id="grill" width="18" height="18" patternUnits="userSpaceOnUse">
      <circle cx="9" cy="9" r="3.2" fill="#d9ffd8" opacity=".16"/>
    </pattern>
    <filter id="shadow" x="-10%" y="-20%" width="120%" height="150%">
      <feDropShadow dx="0" dy="28" stdDeviation="26" flood-color="#000" flood-opacity=".52"/>
    </filter>
  </defs>

  <rect width="1280" height="720" fill="none"/>
  <g filter="url(#shadow)">
    <path d="M120 128h1040c36 0 64 28 64 64v388c0 36-28 64-64 64H120c-36 0-64-28-64-64V192c0-36 28-64 64-64Z" fill="url(#body)"/>
    <path d="M120 128h1040c36 0 64 28 64 64v388c0 36-28 64-64 64H120c-36 0-64-28-64-64V192c0-36 28-64 64-64Z" fill="url(#edge)"/>
    <path d="M108 160h1064v78H108z" fill="#d9ffd8" opacity=".9"/>
    <path d="M108 160h1064v78H108z" fill="#172017" opacity=".14"/>
    <text x="148" y="197" fill="#07110c" font-family="Arial Black, Arial, sans-serif" font-size="28" letter-spacing="7">ZAMAKURI SUPER RADIO CASSETTE</text>
    <text x="148" y="222" fill="#07110c" font-family="Arial, sans-serif" font-size="14" letter-spacing="6" opacity=".62">STEREO 1980 / BOTANICAL MIX / AUTO REVERSE</text>

    <g transform="translate(112 274)">
      <rect width="214" height="214" fill="#060806" stroke="#22271f" stroke-width="5"/>
      <circle cx="107" cy="107" r="82" fill="url(#speaker)" stroke="#d9ffd8" stroke-opacity=".12" stroke-width="5"/>
      <circle cx="107" cy="107" r="100" fill="url(#grill)" opacity=".9"/>
      <circle cx="107" cy="107" r="34" fill="#050705" stroke="#d8d0bf" stroke-opacity=".12" stroke-width="6"/>
    </g>

    <g transform="translate(954 274)">
      <rect width="214" height="214" fill="#060806" stroke="#22271f" stroke-width="5"/>
      <circle cx="107" cy="107" r="82" fill="url(#speaker)" stroke="#d9ffd8" stroke-opacity=".12" stroke-width="5"/>
      <circle cx="107" cy="107" r="100" fill="url(#grill)" opacity=".9"/>
      <circle cx="107" cy="107" r="34" fill="#050705" stroke="#d8d0bf" stroke-opacity=".12" stroke-width="6"/>
    </g>

    <g transform="translate(374 268)">
      <rect width="532" height="220" rx="8" fill="#d6c08a" stroke="#151811" stroke-width="6"/>
      <path d="M18 20h496v70H18z" fill="#f5eac8" opacity=".8"/>
      <rect x="44" y="70" width="444" height="118" rx="6" fill="#10140f" stroke="#2d3027" stroke-width="5"/>
      <circle cx="164" cy="129" r="54" fill="#eee4cc" stroke="#10140f" stroke-width="12"/>
      <circle cx="164" cy="129" r="18" fill="#10140f"/>
      <path d="M164 76v106M111 129h106M126 91l75 75M202 91l-75 75" stroke="#34392d" stroke-width="11" opacity=".9"/>
      <circle cx="368" cy="129" r="54" fill="#eee4cc" stroke="#10140f" stroke-width="12"/>
      <circle cx="368" cy="129" r="18" fill="#10140f"/>
      <path d="M368 76v106M315 129h106M330 91l75 75M406 91l-75 75" stroke="#34392d" stroke-width="11" opacity=".9"/>
      <rect x="238" y="102" width="56" height="54" fill="#eadfbd" stroke="#3c382f" stroke-width="4"/>
      <text x="52" y="48" fill="#2a271d" font-family="Arial Black, Arial, sans-serif" font-size="22" letter-spacing="5">NOW PLAYING</text>
    </g>

    <g transform="translate(374 514)">
      <rect width="532" height="58" fill="#050705" stroke="#2d3027" stroke-width="4"/>
      <rect x="22" y="16" width="32" height="24" fill="#547f4f"/>
      <rect x="62" y="16" width="32" height="24" fill="#547f4f"/>
      <rect x="102" y="16" width="32" height="24" fill="#547f4f"/>
      <rect x="142" y="16" width="32" height="24" fill="#d6a939"/>
      <rect x="182" y="16" width="32" height="24" fill="#c9482e"/>
      <text x="266" y="37" fill="#d8d0bf" font-family="Arial Black, Arial, sans-serif" font-size="14" letter-spacing="4">LEVEL METER</text>
    </g>

    <g transform="translate(310 596)">
      <rect width="104" height="54" fill="url(#metal)" stroke="#11140f" stroke-width="5"/>
      <rect x="128" width="104" height="54" fill="url(#metal)" stroke="#11140f" stroke-width="5"/>
      <rect x="256" width="104" height="54" fill="#92c78d" stroke="#11140f" stroke-width="5"/>
      <rect x="384" width="104" height="54" fill="url(#metal)" stroke="#11140f" stroke-width="5"/>
      <rect x="512" width="104" height="54" fill="url(#metal)" stroke="#11140f" stroke-width="5"/>
      <text x="32" y="34" fill="#10140f" font-family="Arial Black, Arial, sans-serif" font-size="16">REC</text>
      <text x="154" y="34" fill="#10140f" font-family="Arial Black, Arial, sans-serif" font-size="16">REW</text>
      <text x="280" y="34" fill="#10140f" font-family="Arial Black, Arial, sans-serif" font-size="16">PLAY</text>
      <text x="410" y="34" fill="#10140f" font-family="Arial Black, Arial, sans-serif" font-size="16">STOP</text>
      <text x="550" y="34" fill="#10140f" font-family="Arial Black, Arial, sans-serif" font-size="16">FF</text>
    </g>
  </g>
</svg>
